<svg width="120" height="69" viewBox="0 0 120 69" fill="none" xmlns="http://www.w3.org/2000/svg">
<g opacity="0.6">
<mask id="mask0_8_63" style="mask-type:alpha" maskUnits="userSpaceOnUse" x="0" y="0" width="120" height="69">
<rect width="120" height="68.1007" transform="matrix(1 0 0 -1 0 68.1007)" fill="#C4C4C4"/>
</mask>
<g mask="url(#mask0_8_63)">
<rect width="47.341" height="6.63941" transform="matrix(0.838671 -0.544639 -0.544639 -0.838671 88.668 75.5267)" fill="#FC1321"/>
<rect width="78.4408" height="6.63941" transform="matrix(0.838671 -0.544639 -0.544639 -0.838671 69.8059 75.6977)" fill="#FC1321"/>
<rect width="97.4734" height="6.63941" transform="matrix(0.838671 -0.544639 -0.544639 -0.838671 50.3123 76.2789)" fill="#FC1321"/>
<rect width="117.512" height="6.63941" transform="matrix(0.838671 -0.544639 -0.544639 -0.838671 31.6311 76.3326)" fill="#FC1321"/>
<rect width="146.662" height="6.63941" transform="matrix(0.838671 -0.544639 -0.544639 -0.838671 12.4116 76.7363)" fill="#FC1321"/>
<rect width="172.965" height="6.63941" transform="matrix(0.838671 -0.544639 -0.544639 -0.838671 -19.5854 85.4369)" fill="#FC1321"/>
<rect width="143.086" height="6.63941" transform="matrix(0.838671 -0.544639 -0.544639 -0.838671 -13.9116 69.6743)" fill="#FC1321"/>
<rect width="105.196" height="6.63941" transform="matrix(0.838671 -0.544639 -0.544639 -0.838671 -11.1123 55.7783)" fill="#FC1321"/>
<rect width="95.6989" height="6.63941" transform="matrix(0.838671 -0.544639 -0.544639 -0.838671 -10.4692 43.283)" fill="#FC1321"/>
<rect width="95.6989" height="6.63941" transform="matrix(0.838671 -0.544639 -0.544639 -0.838671 -17.7925 35.9603)" fill="#FC1321"/>
<rect width="95.6989" height="6.63941" transform="matrix(0.838671 -0.544639 -0.544639 -0.838671 -25.1145 28.6376)" fill="#FC1321"/>
<rect width="38.4122" height="6.63941" transform="matrix(0.838671 -0.544639 -0.544639 -0.838671 102.564 77.9863)" fill="#FC1321"/>
</g>
</g>
</svg>
